<svg xmlns="http://www.w3.org/2000/svg" width="30" height="30" viewBox="0 0 30 30">
  <defs>
    <style>
      .cls-1 {
        fill: #fff;
      }

      .cls-2 {
        fill: #c3cdce;
      }

      .cls-3 {
        fill: #bac5c6;
      }

      .cls-4 {
        fill: #a9b3b5;
        stroke: rgba(0,0,0,0);
        stroke-miterlimit: 10;
      }
    </style>
  </defs>
  <g id="Group_5979" data-name="Group 5979" transform="translate(-20 -334)">
    <rect id="Rectangle_1829" data-name="Rectangle 1829" class="cls-1" width="30" height="30" transform="translate(20 334)"/>
    <g id="Group_5918" data-name="Group 5918" transform="translate(1 -24.519)">
      <g id="Buy" transform="translate(22 361.519)">
        <path id="Combined_Shape" data-name="Combined Shape" class="cls-2" d="M13.663,1.851A1.84,1.84,0,1,1,15.509,3.69,1.848,1.848,0,0,1,13.663,1.851ZM0,1.851A1.84,1.84,0,1,1,1.846,3.69,1.848,1.848,0,0,1,0,1.851Z" transform="translate(4.749 20.175)"/>
        <path id="Fill_7" data-name="Fill 7" class="cls-3" d="M20.04,18.251H6.79A3.1,3.1,0,0,1,3.705,15.4L2.587,2.129.754,1.813A.906.906,0,0,1,.17,1.438.893.893,0,0,1,.013.765.925.925,0,0,1,.932,0,.961.961,0,0,1,1.07.01l2.9.438a.923.923,0,0,1,.752.828L4.95,4a.744.744,0,0,0,.74.683h16.4A2.07,2.07,0,0,1,23.8,5.5,2.647,2.647,0,0,1,24.266,7.6l-1.154,7.988A3.119,3.119,0,0,1,20.04,18.251Zm-5.307-9.06a.9.9,0,0,0-.912.913.914.914,0,0,0,.912.914H18.1a.914.914,0,0,0,.912-.914.9.9,0,0,0-.912-.913Z" transform="translate(0)"/>
      </g>
      <path id="Subtraction_2" data-name="Subtraction 2" class="cls-4" d="M-13193.959,1848.252h-13.25a3.083,3.083,0,0,1-2.1-.823,3.1,3.1,0,0,1-.985-2.026l-.042-.492a3.337,3.337,0,0,0,2.685,1.385h14.338a3.328,3.328,0,0,0,2.485-1.129l-.061.419a3.106,3.106,0,0,1-1.039,1.909A3.1,3.1,0,0,1-13193.959,1848.252Z" transform="translate(13236 -1468.481)"/>
    </g>
  </g>
</svg>
