<svg xmlns="http://www.w3.org/2000/svg" width="30" height="30" viewBox="0 0 30 30">
  <defs>
    <style>
      .cls-1 {
        fill: #fff;
      }

      .cls-2 {
        fill: #8f9da0;
      }

      .cls-3 {
        fill: #c3cdce;
      }

      .cls-4 {
        fill: #9ba9ac;
      }
    </style>
  </defs>
  <g id="Group_5980" data-name="Group 5980" transform="translate(-20 -284)">
    <rect id="Rectangle_1828" data-name="Rectangle 1828" class="cls-1" width="30" height="30" transform="translate(20 284)"/>
    <g id="Group_2285" data-name="Group 2285" transform="translate(6.633 -43)">
      <path id="Path_594" data-name="Path 594" class="cls-2" d="M24.531,4.861l1.286,1.286L6.19,25.707a24.084,24.084,0,0,1-4.275,3.4l-.366.229a.2.2,0,0,1-.272-.272l.229-.366a24.086,24.086,0,0,1,3.4-4.275Z" transform="translate(15.121 325.387)"/>
      <circle id="Ellipse_194" data-name="Ellipse 194" class="cls-2" cx="1.776" cy="1.776" r="1.776" transform="translate(37.634 330)"/>
      <g id="Group_590" data-name="Group 590" transform="translate(18.646 331.522)">
        <path id="Path_595" data-name="Path 595" class="cls-3" d="M87.2,40.436a10.744,10.744,0,0,0-7.96-10.444,2.6,2.6,0,0,0-1.063-.057c-.136.021-.324.054-.459.08l-.045.159a6.625,6.625,0,0,0-.779.192l-.308-.06a10.828,10.828,0,0,0-2.507,1.179l.02.163c-.242.157-.377.248-.6.423l-.253.01a10.837,10.837,0,0,0-1.773,1.78l.116.091c-.164.211-.286.371-.433.594l-.239.093A10.815,10.815,0,0,0,69.848,36.8l.145.034c-.094.264-.154.432-.226.7l-.2.177A10.62,10.62,0,0,0,69.23,40.3a10.8,10.8,0,0,0,.209,2.167l.145-.029a6.944,6.944,0,0,0,.2.808l-.056.323a10.654,10.654,0,0,0,1.145,2.451l.134-.064c.142.22.263.4.421.612l.022.273a10.812,10.812,0,0,0,1.724,1.753l.142-.075a6.524,6.524,0,0,0,.542.4l.069.225a10.7,10.7,0,0,0,3.049,1.4l.165-.108a10.508,10.508,0,0,0,1.036.365,2.623,2.623,0,0,0,1.007-.042l.069-.018A10.744,10.744,0,0,0,87.2,40.436Z" transform="translate(-69.23 -29.905)"/>
      </g>
      <path id="Path_596" data-name="Path 596" class="cls-4" d="M244.646,28.1a10.622,10.622,0,0,0-1.782.139,10.556,10.556,0,0,1,0,20.831,10.629,10.629,0,0,0,2.783.086l.041-.153c.3-.031.449-.05.737-.1l.231.107a10.276,10.276,0,0,0,2.368-.775l-.032-.148c.247-.117.433-.209.669-.344l.2.055a10.4,10.4,0,0,0,1.26-.857l-.053-.146c.191-.153.328-.266.508-.432l.188.027c.25-.234.494-.48.72-.738l.02-.249c.17-.2.294-.357.449-.565l.119.088a10.527,10.527,0,0,0,1.22-2.13l-.062-.24c.1-.253.179-.464.264-.726l.147.027a10.559,10.559,0,0,0,.479-2.667l-.137-.275s-.005-.673-.015-.871l.148.008a10.244,10.244,0,0,0-.188-1.475l-.169-.086c-.049-.234-.1-.43-.163-.658l.131-.079a10.374,10.374,0,0,0-.4-1.147l-.2-.084c-.115-.276-.2-.45-.342-.713l.135-.06a10.475,10.475,0,0,0-1.414-2.053l-.254-.059c-.2-.23-.35-.37-.573-.582l.117-.092a10.567,10.567,0,0,0-2.23-1.606l-.308.006c-.259-.133-.476-.229-.747-.34l.008-.156a10.526,10.526,0,0,0-3.878-.762Z" transform="translate(-215.378 303.331)"/>
      <g id="Group_594" data-name="Group 594" transform="translate(18.854 331.633)">
        <path id="Path_597" data-name="Path 597" class="cls-4" d="M86.79,33.813q-.358-.268-.738-.506a13.55,13.55,0,0,0-1.576.942,13.387,13.387,0,0,0-2.854-2.184,10.475,10.475,0,0,0-1.132.292,12.6,12.6,0,0,1,3.345,2.365,13.525,13.525,0,0,0-1.488,1.358,10.553,10.553,0,0,0-4.363-2.543q-.432.278-.835.6a9.767,9.767,0,0,1,4.675,2.535q-.159.189-.311.385a13.607,13.607,0,0,0-.878,1.275,7.8,7.8,0,0,0-5.26-2.413q-.295.376-.556.778c.068,0,.135,0,.2,0a7.012,7.012,0,0,1,5.046,2.183,13.3,13.3,0,0,0-1.953.932,5.008,5.008,0,0,0-3.106-1.1,5.084,5.084,0,0,0-1.259.152q-.161.448-.282.913a4.2,4.2,0,0,1,1.508-.278h.028a4.223,4.223,0,0,1,2.4.764,13.491,13.491,0,0,0-4.06,4.267,10.468,10.468,0,0,0,.286,1.1,12.695,12.695,0,0,1,4.638-4.99.394.394,0,0,0,.04-.025,12.5,12.5,0,0,1,1.552-.8,13.193,13.193,0,0,0-.886,2.763,10.583,10.583,0,0,0-4.2,5.5q.27.424.578.82A9.784,9.784,0,0,1,78.8,43.666a13.7,13.7,0,0,0-.094,1.519q0,.67.056,1.329a7.833,7.833,0,0,0-1.683,4.132q.364.293.753.553a7.047,7.047,0,0,1,1.082-3.546A13.228,13.228,0,0,0,80.878,52.6a10.494,10.494,0,0,0,1.132.246A12.66,12.66,0,0,1,86.79,33.813Z" transform="translate(-73.342 -32.066)"/>
        <g id="Group_591" data-name="Group 591" transform="translate(8.63 0.56)">
          <path id="Path_598" data-name="Path 598" class="cls-4" d="M318.11,43.883q.377.233.733.5a12.786,12.786,0,0,1,2.144-.817,10.5,10.5,0,0,0-1.046-.491A13.379,13.379,0,0,0,318.11,43.883Z" transform="translate(-314.28 -43.072)"/>
          <path id="Path_599" data-name="Path 599" class="cls-4" d="M242.907,439.944l-.008-.011-.029.005h0Z" transform="translate(-242.869 -419.73)"/>
        </g>
        <path id="Path_600" data-name="Path 600" class="cls-4" d="M237.126,112.407a9.874,9.874,0,0,1,3.9-16.144q-.252-.333-.529-.646a10.673,10.673,0,0,0-4.139,17.125Q236.749,112.589,237.126,112.407Z" transform="translate(-225.432 -92.382)"/>
        <g id="Group_592" data-name="Group 592" transform="translate(10.765 2.657)">
          <path id="Path_601" data-name="Path 601" class="cls-4" d="M285.557,421.973q-.373.181-.761.333.305.344.648.672h0q.255-.026.507-.063h.008l.242-.039.031-.006.221-.041h0A10.415,10.415,0,0,1,285.557,421.973Z" transform="translate(-284.796 -404.78)"/>
          <path id="Path_602" data-name="Path 602" class="cls-4" d="M366.825,84.249a10.589,10.589,0,0,0-2.768.68q.275.309.525.639a10.04,10.04,0,0,1,2.952-.585Q367.2,84.6,366.825,84.249Z" transform="translate(-360.022 -84.249)"/>
        </g>
        <path id="Path_603" data-name="Path 603" class="cls-4" d="M293.89,150.82a7.734,7.734,0,0,0-4.355-1.625,6.987,6.987,0,0,1,.8-1.946,9.8,9.8,0,0,1,4.934,2.1q.057-.461.075-.934a10.586,10.586,0,0,0-4.51-1.889,7.085,7.085,0,0,1,1.835-1.642,12.559,12.559,0,0,1,2.477,1.027q-.1-.516-.253-1.013a13.3,13.3,0,0,0-1.242-.52,6.972,6.972,0,0,1,.95-.32q-.148-.375-.324-.735a7.817,7.817,0,0,0-3.218,13.28q.318-.239.617-.5a7.018,7.018,0,0,1-2.286-6.124,7,7,0,0,1,2.052.391,6.064,6.064,0,0,0-.04.652,5.966,5.966,0,0,0,1.423,3.914q.261-.309.5-.638a5.218,5.218,0,0,1-1.135-3.271c0-.112.006-.225.014-.337a7.029,7.029,0,0,1,2.215,1.715q.178-.4.325-.811A7.767,7.767,0,0,0,293.89,150.82Z" transform="translate(-277.592 -137.658)"/>
        <g id="Group_593" data-name="Group 593" transform="translate(13.285 5.389)">
          <path id="Path_604" data-name="Path 604" class="cls-4" d="M400.09,301.289q-.138.412-.308.807a7.077,7.077,0,0,1,1.634,2.833h0c.2-.221.4-.466.587-.726A7.9,7.9,0,0,0,400.09,301.289Z" transform="translate(-396.449 -292.972)"/>
          <path id="Path_605" data-name="Path 605" class="cls-4" d="M415.389,239.413q-.009.468-.058.925a9.855,9.855,0,0,1,2.649,3.009c.132-.309.248-.623.349-.939A10.641,10.641,0,0,0,415.389,239.413Z" transform="translate(-411.207 -234.246)"/>
          <path id="Path_606" data-name="Path 606" class="cls-4" d="M410.261,173.76a13.46,13.46,0,0,0-1.828-1.5,5.132,5.132,0,0,1,.781-.053,5.26,5.26,0,0,1,.86.077c-.051-.253-.122-.549-.2-.823a6,6,0,0,0-2.4.206q-.559-.316-1.147-.576.16.49.272,1a12.641,12.641,0,0,1,3.663,2.807A10.423,10.423,0,0,0,410.261,173.76Z" transform="translate(-402.664 -169.403)"/>
          <path id="Path_607" data-name="Path 607" class="cls-4" d="M334.924,390.9q-.3.262-.612.5a7.839,7.839,0,0,0,1.5,1.16c.279-.13.563-.277.839-.437A7.045,7.045,0,0,1,334.924,390.9Z" transform="translate(-334.312 -378.021)"/>
          <path id="Path_608" data-name="Path 608" class="cls-4" d="M396.059,139a7,7,0,0,1,2.036-.3h.045a7.1,7.1,0,0,1,1.278.125q-.183-.439-.4-.856h0a7.9,7.9,0,0,0-.869-.054h-.05a7.884,7.884,0,0,0-2.359.355Q395.911,138.631,396.059,139Z" transform="translate(-392.609 -137.917)"/>
          <path id="Path_609" data-name="Path 609" class="cls-4" d="M369.714,354.366q-.237.338-.5.656a6,6,0,0,0,1.827,1.571q.332-.263.643-.551A5.2,5.2,0,0,1,369.714,354.366Z" transform="translate(-367.438 -343.347)"/>
        </g>
      </g>
    </g>
  </g>
</svg>
