<svg xmlns="http://www.w3.org/2000/svg" width="20.433" height="20.433" viewBox="0 0 20.433 20.433">
  <defs>
    <style>
      .cls-1 {
        fill: none;
        stroke-linecap: round;
        stroke-linejoin: round;
        stroke-miterlimit: 10;
        stroke-width: 1.5px;
      }

      .cls-1, .cls-2 {
        stroke: #a4afb2;
      }

      .cls-2 {
        fill: #a4afb2;
        stroke-width: 0.4px;
      }
    </style>
  </defs>
  <g id="Group_88" data-name="Group 88" transform="translate(0.921 0.749)">
    <g id="Iconly_Light_Chat" data-name="Iconly/Light/Chat" transform="translate(0 0.001)">
      <g id="Chat">
        <path id="Stroke_4" data-name="Stroke 4" class="cls-1" d="M16.015,16.014a9.387,9.387,0,0,1-10.587,1.88A3.8,3.8,0,0,0,4.1,17.52c-1.113.007-2.5,1.086-3.22.367s.36-2.107.36-3.228a3.747,3.747,0,0,0-.367-1.327,9.383,9.383,0,1,1,15.146,2.681Z" transform="translate(0)"/>
      </g>
    </g>
    <g id="question" transform="translate(5.629 3.753)">
      <path id="Path_425" data-name="Path 425" class="cls-2" d="M236.4,363.534a.866.866,0,1,1-.866-.866A.867.867,0,0,1,236.4,363.534Zm0,0" transform="translate(-231.852 -352.497)"/>
      <path id="Path_427" data-name="Path 427" class="cls-2" d="M169.023,94.412a.65.65,0,0,1-.65-.65l-.008-.64a1.954,1.954,0,0,1,1.3-1.839,2.688,2.688,0,0,0,1.731-2.269,2.383,2.383,0,1,0-4.766,0,.65.65,0,1,1-1.3,0,3.683,3.683,0,1,1,7.365,0,3.987,3.987,0,0,1-2.6,3.495.65.65,0,0,0-.434.613l.008.639A.65.65,0,0,1,169.023,94.412Zm0,0" transform="translate(-165.332 -85.332)"/>
    </g>
  </g>
</svg>
