<svg xmlns="http://www.w3.org/2000/svg" width="30" height="30" viewBox="0 0 30 30">
  <defs>
    <style>
      .cls-1 {
        fill: #fff;
      }

      .cls-2 {
        fill: #01896a;
      }

      .cls-3 {
        fill: #27a88b;
      }
    </style>
  </defs>
  <g id="Group_5984" data-name="Group 5984" transform="translate(-20 -96)">
    <rect id="Rectangle_1824" data-name="Rectangle 1824" class="cls-1" width="30" height="30" transform="translate(20 96)"/>
    <g id="Group_584" data-name="Group 584" transform="translate(5.135 -99.685)">
      <path id="Home" class="cls-2" d="M7.615,21.527V18.012a1.626,1.626,0,0,1,1.621-1.62H12.53a1.626,1.626,0,0,1,1.632,1.62h0v3.5a1.411,1.411,0,0,0,1.406,1.406h2.247a3.966,3.966,0,0,0,2.8-1.145A3.908,3.908,0,0,0,21.776,19V9.015a2.834,2.834,0,0,0-1.026-2.18L13.115.773A3.57,3.57,0,0,0,8.579.854L1.108,6.835A2.836,2.836,0,0,0,0,9.015V18.99a3.947,3.947,0,0,0,3.961,3.933h2.2a1.411,1.411,0,0,0,1-.405,1.391,1.391,0,0,0,.415-.991Z" transform="translate(18.865 199.685)"/>
      <path id="Intersection_1" data-name="Intersection 1" class="cls-3" d="M-9667.864-11452c0-.241.008-.481.022-.718l1.421-1.138a3.577,3.577,0,0,1,4.537-.081l7.635,6.062a2.838,2.838,0,0,1,1.024,2.181v4.075a10.99,10.99,0,0,1-3.642.617A11,11,0,0,1-9667.864-11452Z" transform="translate(9693.865 11654.393)"/>
    </g>
  </g>
</svg>
