<svg xmlns="http://www.w3.org/2000/svg" width="30" height="30" viewBox="0 0 30 30">
  <defs>
    <style>
      .cls-1 {
        fill: #fff;
      }

      .cls-2 {
        fill: #8f9da0;
      }

      .cls-3 {
        fill: #a9b3b5;
      }

      .cls-4 {
        fill: #c3cdce;
      }
    </style>
  </defs>
  <g id="Group_5983" data-name="Group 5983" transform="translate(-20 -145)">
    <rect id="Rectangle_1825" data-name="Rectangle 1825" class="cls-1" width="30" height="30" transform="translate(20 145)"/>
    <g id="Group_585" data-name="Group 585" transform="translate(2.669 -149.685)">
      <ellipse id="Ellipse_746" class="cls-2" cx="9.856" cy="9.918" rx="9.856" ry="9.918" transform="translate(20.331 297.685)"/>
      <path id="Path_34202" class="cls-3" d="M4.094,5.679a1.848,1.848,0,0,1-1.158-.528L.433,2.226A1.336,1.336,0,0,1,.335.357h0a1.2,1.2,0,0,1,1.7,0L5.186,2.875a1.657,1.657,0,0,1,.357,1.759,1.64,1.64,0,0,1-1.45,1.045Z" transform="translate(37.978 315.311)"/>
      <path id="Intersection_2" data-name="Intersection 2" class="cls-4" d="M-9673.707-11453.081a9.98,9.98,0,0,1,.589-3.388,9.485,9.485,0,0,1,7.618-3.824,9.5,9.5,0,0,1,9.5,9.5,9.458,9.458,0,0,1-1.752,5.5,9.773,9.773,0,0,1-6.1,2.127A9.886,9.886,0,0,1-9673.707-11453.081Z" transform="translate(9694.039 11760.684)"/>
    </g>
  </g>
</svg>
