<svg xmlns="http://www.w3.org/2000/svg" width="20.52" height="21.712" viewBox="0 0 20.52 21.712">
  <defs>
    <style>
      .cls-1 {
        fill: none;
        stroke: #a4afb2;
        stroke-linecap: round;
        stroke-linejoin: round;
        stroke-miterlimit: 10;
        stroke-width: 1.5px;
      }
    </style>
  </defs>
  <g id="Iconly_Two-tone_Setting" data-name="Iconly/Two-tone/Setting" transform="translate(0.884 0.75)">
    <g id="Setting">
      <path id="Path_33946" class="cls-1" d="M18.49,5.621l-.657-1.136a2.021,2.021,0,0,0-2.752-.741h0a2.012,2.012,0,0,1-2.752-.712,1.92,1.92,0,0,1-.27-.962h0A2.015,2.015,0,0,0,10.041,0H8.718A2.005,2.005,0,0,0,6.71,2.012h0A2.015,2.015,0,0,1,4.692,3.994a1.936,1.936,0,0,1-.966-.269h0a2.021,2.021,0,0,0-2.752.741L.27,5.621A2.008,2.008,0,0,0,1,8.364H1a2.008,2.008,0,0,1,0,3.484H1A2,2,0,0,0,.27,14.581h0l.666,1.145a2.021,2.021,0,0,0,2.752.78h0a2,2,0,0,1,2.742.731,1.92,1.92,0,0,1,.27.962h0a2.015,2.015,0,0,0,2.018,2.012h1.323a2.015,2.015,0,0,0,2.018-2h0A2.005,2.005,0,0,1,14.077,16.2a2.062,2.062,0,0,1,.966.269h0a2.022,2.022,0,0,0,2.752-.731h0l.7-1.155a2,2,0,0,0-.734-2.743h0A2,2,0,0,1,17.022,9.1a1.976,1.976,0,0,1,.734-.731h0A2.008,2.008,0,0,0,18.49,5.63h0Z"/>
      <ellipse id="Ellipse_737" class="cls-1" cx="2.781" cy="2.772" rx="2.781" ry="2.772" transform="translate(6.604 7.334)"/>
    </g>
  </g>
</svg>
